<svg xmlns="http://www.w3.org/2000/svg" width="33" height="28.669" viewBox="0 0 33 28.669">
  <g id="download" transform="translate(0 -1)">
    <path id="Path_94" data-name="Path 94" d="M1.031,9.9a1.031,1.031,0,0,1,1.031,1.031v5.156A2.062,2.062,0,0,0,4.125,18.15h24.75a2.063,2.063,0,0,0,2.063-2.062V10.931a1.031,1.031,0,0,1,2.063,0v5.156a4.125,4.125,0,0,1-4.125,4.125H4.125A4.125,4.125,0,0,1,0,16.087V10.931A1.031,1.031,0,0,1,1.031,9.9Z" transform="translate(0 9.456)" fill="#fff"/>
    <path id="Path_95" data-name="Path 95" d="M10.989,23.386a1.031,1.031,0,0,0,1.46,0L18.637,17.2a1.033,1.033,0,1,0-1.46-1.46l-4.426,4.428V2.031a1.031,1.031,0,0,0-2.062,0V20.167L6.262,15.739A1.033,1.033,0,1,0,4.8,17.2Z" transform="translate(4.781)" fill="#fff"/>
  </g>
</svg>
