<svg xmlns="http://www.w3.org/2000/svg" xmlns:xlink="http://www.w3.org/1999/xlink" width="27.198" height="35.502" viewBox="0 0 27.198 35.502">
  <defs>
    <filter id="Exclusion_1" x="0" y="0" width="27.198" height="35.502" filterUnits="userSpaceOnUse">
      <feOffset dy="0.5" input="SourceAlpha"/>
      <feGaussianBlur stdDeviation="0.25" result="blur"/>
      <feFlood flood-opacity="0.161"/>
      <feComposite operator="in" in2="blur"/>
      <feComposite in="SourceGraphic"/>
    </filter>
  </defs>
  <g id="duet_icon" transform="translate(-214.228 -162.639)">
    <g transform="matrix(1, 0, 0, 1, 214.23, 162.64)" filter="url(#Exclusion_1)">
      <path id="Exclusion_1-2" data-name="Exclusion 1" d="M-5134.151-396.108h-.05a8.3,8.3,0,0,1-6.624-3.322.759.759,0,0,1,.159-1.045.749.749,0,0,1,.455-.153.752.752,0,0,1,.593.287,6.835,6.835,0,0,0,5.442,2.723,6.832,6.832,0,0,0,5.442-2.723.751.751,0,0,1,.593-.286.751.751,0,0,1,.455.152.752.752,0,0,1,.159,1.045A8.3,8.3,0,0,1-5134.151-396.108Zm9.422-5.664h-6.8a.757.757,0,0,1-.757-.756v-4.72l-1.889-.54-1.888.54v4.72a.756.756,0,0,1-.756.756h-6.8a.756.756,0,0,1-.756-.756v-4.72l-2.1-.6a.759.759,0,0,1-.548-.726,6.784,6.784,0,0,1,5.2-6.6,6.815,6.815,0,0,1,1.6-.19,6.776,6.776,0,0,1,6.045,3.687,6.773,6.773,0,0,1,6.045-3.7h.008a6.817,6.817,0,0,1,6.8,6.8.759.759,0,0,1-.548.726l-2.1.6v4.72A.756.756,0,0,1-5124.729-401.773Zm-3.4-14.359a4.161,4.161,0,0,1-4.157-4.155,4.161,4.161,0,0,1,4.157-4.156,4.16,4.16,0,0,1,4.155,4.156A4.167,4.167,0,0,1-5128.131-416.132Zm-12.089,0a4.161,4.161,0,0,1-4.157-4.155,4.161,4.161,0,0,1,4.157-4.156,4.16,4.16,0,0,1,4.155,4.156A4.165,4.165,0,0,1-5140.221-416.132Zm-.012-9.429a.765.765,0,0,1-.086,0,.754.754,0,0,1-.611-.461.755.755,0,0,1,.1-.758,8.35,8.35,0,0,1,6.65-3.326,8.351,8.351,0,0,1,6.651,3.326.753.753,0,0,1,.074.791.751.751,0,0,1-.674.419h-.01a.755.755,0,0,1-.6-.3,6.835,6.835,0,0,0-5.442-2.722,6.834,6.834,0,0,0-5.441,2.722A.76.76,0,0,1-5140.233-425.56Z" transform="translate(5147.77 430.36)" fill="#f9f9f9"/>
    </g>
  </g>
</svg>
