<svg height="34.538" viewBox="0 0 37.538 34.538" width="37.538" xmlns="http://www.w3.org/2000/svg">
    <defs>
        <filter filterUnits="userSpaceOnUse" height="34.538" id="Fill_1" width="37.538" x="0" y="0">
            <feOffset dy="0.5" input="SourceAlpha" />
            <feGaussianBlur result="blur" stdDeviation="0.25" />
            <feFlood flood-opacity="0.149" />
            <feComposite in2="blur" operator="in" />
            <feComposite in="SourceGraphic" />
        </filter>
    </defs>
    <g data-name="Like Icon" id="Like_Icon" transform="translate(0.669 0.75)">
        <g filter="url(#Fill_1)" transform="matrix(1, 0, 0, 1, -0.67, -0.75)">
            <path d="M25.568,0c-3.2,0-6.712,1.661-8.057,4.249C16.165,1.661,12.616,0,9.417,0c-5,0-11.7,3.994-8.65,14.892,2.747,8.386,11.787,14.671,15.24,16.7a2.966,2.966,0,0,0,3,0c3.45-2.029,12.476-8.311,15.222-16.7C37.286,3.994,30.565,0,25.568,0" data-name="Fill 1"
                fill="none"
                id="Fill_1-2" stroke="#fff" stroke-width="1" transform="translate(1.27 0.75)" />
        </g>
    </g>
</svg>
