<svg data-name="favourites hidden icon" height="16.64"
    id="favourites_hidden_icon" viewBox="0 0 19.95 16.64" width="19.95" xmlns="http://www.w3.org/2000/svg">
    <path d="M1.235,1.194h.59c1.417,0,3.952,1.21,3.952,2.4a1.914,1.914,0,0,1-.99,1.363l.854.854A2.886,2.886,0,0,0,6.971,3.594,3.29,3.29,0,0,0,5.018.962,6.935,6.935,0,0,0,1.825,0h-.59A5.1,5.1,0,0,0,0,.17L1.032,1.2c.069-.005.137-.009.2-.009" data-name="Fill 1"
        fill="#161823"
        id="Fill_1" transform="translate(12.979 6.618)" />
    <path d="M9.153,8.738a.593.593,0,0,1-.422-.175l-.924-.925a6.215,6.215,0,0,1-2.19.477h-.59a6.547,6.547,0,0,1-3.141-.967A3.279,3.279,0,0,1,0,4.522,3.279,3.279,0,0,1,1.886,1.894l.074-.043L2,1.829l-.809-.81A.6.6,0,0,1,2.031.175l.117.118c.009.012.018.023.029.035l.969.968.956.956L8.055,6.205l.876.876.691.691a.6.6,0,0,1-.469.966ZM2.878,2.71c-.135.068-.262.137-.376.206-.819.493-1.308,1.093-1.308,1.606s.489,1.112,1.308,1.6a5.453,5.453,0,0,0,2.524.795h.59A4.392,4.392,0,0,0,6.87,6.7Z" data-name="Fill 3"
        fill="#161823"
        id="Fill_3" transform="translate(9.187 5.69)" />
    <path d="M10.286,13.843c-.315.315-.649.643-.972.961l-.172.169L8.969,14.8c-.323-.317-.657-.646-.972-.961L2.4,8.25A4.136,4.136,0,0,1,8.253,2.4l.811.81.047.05.906-.846.015-.014a4.134,4.134,0,0,1,7.038,2.511l1.162,1.162A5.332,5.332,0,0,0,9.194,1.548L9.14,1.6,9.1,1.556A5.33,5.33,0,0,0,1.559,9.094l5.594,5.594c.319.319.655.649.98.968s.669.657,1,.984l.013-.013.013.013c.327-.327.667-.661,1-.984s.661-.649.98-.968l.092-.092-.844-.844Z" data-name="Fill 5"
        fill="#161823"
        id="Fill_5" transform="translate(0 0)" />
</svg>
