<svg xmlns="http://www.w3.org/2000/svg" width="26.308" height="22.599" viewBox="0 0 26.308 22.599">
  <g id="filter-Icon" transform="translate(0 0.002)">
    <path id="Path_16" data-name="Path 16" d="M-181.143-279h5.664c.4,0,.8.008,1.2-.009.208-.009.413.028.621.013s.445,0,.667,0h1.986c.264,0,.256,0,.347-.247a3.5,3.5,0,0,1,2.974-2.423,3.556,3.556,0,0,1,3.875,2.516.182.182,0,0,0,.205.155c.6,0,1.2,0,1.807,0,.153,0,.212.043.209.2q-.012.7,0,1.4c0,.162-.06.2-.21.2-.575-.006-1.15,0-1.725-.006a.27.27,0,0,0-.312.219,3.588,3.588,0,0,1-3.45,2.487,3.584,3.584,0,0,1-3.371-2.486.271.271,0,0,0-.31-.22q-8.284.006-16.569,0a1.541,1.541,0,0,0-.163,0c-.138.015-.19-.033-.187-.181.009-.488.008-.976,0-1.465,0-.122.03-.156.154-.155Q-184.439-279-181.143-279Zm15.7.9a1.807,1.807,0,0,0-1.79-1.812,1.824,1.824,0,0,0-1.821,1.8,1.809,1.809,0,0,0,1.791,1.813,1.8,1.8,0,0,0,1.284-.521,1.8,1.8,0,0,0,.535-1.278Z" transform="translate(187.9 289.404)" fill="#fff"/>
    <path id="Path_17" data-name="Path 17" d="M-167.488-41.129c-1.833,0-3.667,0-5.5,0a.251.251,0,0,0-.286.2,3.487,3.487,0,0,1-2.634,2.406,3.456,3.456,0,0,1-3.319-.953,3.393,3.393,0,0,1-.9-1.483.211.211,0,0,0-.086-.137.211.211,0,0,0-.157-.036q-2.376.005-4.752,0c-.906,0-1.812,0-2.717,0-.143,0-.2-.033-.2-.19.009-.488.006-.976,0-1.464,0-.144.076-.145.174-.145h3.857c1.2,0,2.4,0,3.593,0a.265.265,0,0,0,.3-.209,3.494,3.494,0,0,1,2.911-2.453,3.438,3.438,0,0,1,2.88.86,3.471,3.471,0,0,1,1.061,1.642c.045.145.136.158.258.158q1.546,0,3.092,0h7.844c.366,0,.328-.017.329.321v1.2c0,.271,0,.271-.264.271Zm-9.224.905a1.81,1.81,0,0,0,1.825-1.792,1.823,1.823,0,0,0-1.788-1.818,1.813,1.813,0,0,0-1.831,1.772,1.806,1.806,0,0,0,.514,1.293A1.806,1.806,0,0,0-176.712-40.224Z" transform="translate(188.046 61.017)" fill="#fff"/>
    <path id="Path_18" data-name="Path 18" d="M-169.848-513.807h-7.063c-.233,0-.467.008-.7,0a.2.2,0,0,0-.151.039.2.2,0,0,0-.079.135,3.564,3.564,0,0,1-1.279,1.818,3.527,3.527,0,0,1-1.793.7,3.454,3.454,0,0,1-1.869-.314,3.523,3.523,0,0,1-1.912-2.167.263.263,0,0,0-.108-.173.264.264,0,0,0-.2-.044c-1.009.008-2.018,0-3.027.008-.153,0-.175-.046-.173-.182q.009-.756-.008-1.513c0-.122.067-.087.124-.087,1.025,0,2.051,0,3.076.005a.279.279,0,0,0,.319-.226,3.517,3.517,0,0,1,3.028-2.464,3.35,3.35,0,0,1,2.191.461,3.531,3.531,0,0,1,1.611,2,.283.283,0,0,0,.326.226q7.649-.007,15.3,0a1.27,1.27,0,0,0,.146,0c.143-.017.19.045.188.186q-.009.716,0,1.432c0,.13-.04.164-.168.163q-2.644-.007-5.289,0Zm-9.618-.88a1.832,1.832,0,0,0-1.822-1.823,1.811,1.811,0,0,0-1.787,1.818,1.8,1.8,0,0,0,.526,1.281,1.8,1.8,0,0,0,1.28.529A1.826,1.826,0,0,0-179.466-514.687Z" transform="translate(188.209 518.3)" fill="#fff"/>
  </g>
</svg>
