<svg xmlns="http://www.w3.org/2000/svg" width="41.242" height="34.371" viewBox="0 0 41.242 34.371">
  <g id="flash_2" transform="translate(-0.1 -42.699)">
    <path id="Path_129" data-name="Path 129" d="M128.1,225.683a2.469,2.469,0,0,0,.222-1.029A13.776,13.776,0,0,1,139.469,213.6a17.514,17.514,0,0,1,2.161-.21c.649-.023,1.048.289,1.068.822.02.555-.359.9-1.035.907a11.434,11.434,0,0,0-6.893,2.308,11.583,11.583,0,0,0-4.9,10.49,11.928,11.928,0,0,0,10.182,11.12,11.318,11.318,0,0,0,1.645.125c.645.01,1.015.355,1,.9s-.413.849-1.063.829a13.761,13.761,0,0,1-12.916-9.67,14.854,14.854,0,0,1-.533-2.512c-.01-.073.02-.167-.085-.2Z" transform="translate(-128 -167.246)" fill="#fff"/>
    <path id="Path_130" data-name="Path 130" d="M473.216,228.588a2.438,2.438,0,0,0-.223,1.028,13.786,13.786,0,0,1-11.145,11.059,17.155,17.155,0,0,1-2.04.2c-.759.031-1.169-.251-1.189-.816s.363-.886,1.115-.911a12.018,12.018,0,0,0-.235-24.034.833.833,0,0,1-.836-.579.82.82,0,0,1,.262-.945,1,1,0,0,1,.676-.2,13.777,13.777,0,0,1,13.3,10.8,13.084,13.084,0,0,0,.316,1.67Z" transform="translate(-431.874 -167.25)" fill="#fff"/>
    <path id="Path_131" data-name="Path 131" d="M253.876,193.044h-7.462a2.592,2.592,0,0,1-2.17-4.159l12.423-17.669c.332-.472.706-.618,1.128-.45a.89.89,0,0,1,.5,1.1q-1.056,5.9-2.123,11.792c-.142.783-.154.781.659.781,2.162,0,4.323-.006,6.484,0A2.572,2.572,0,0,1,266,186.525a2.538,2.538,0,0,1-.564,2.182l-3.678,4.635q-4.427,5.584-8.856,11.162c-.067.081-.132.17-.2.249a.855.855,0,0,1-1.055.218.806.806,0,0,1-.434-.945c.272-1.174.564-2.343.853-3.513q.9-3.626,1.8-7.252A1.617,1.617,0,0,0,253.876,193.044Zm1.909-17.475c-.179.059-.223.211-.3.322q-2.964,4.208-5.923,8.419l-3.906,5.56a.856.856,0,0,0,.086,1.255,1.179,1.179,0,0,0,.8.206h8.334c.733,0,1.107.443.938,1.139-.611,2.51-1.236,5.017-1.849,7.526-.023.092-.172.207-.043.28s.2-.089.276-.175c.045-.05.081-.1.127-.161l5.227-6.587,4.525-5.706a.855.855,0,0,0,.032-1.2.989.989,0,0,0-.806-.277q-4.066,0-8.132,0a.879.879,0,0,1-.978-1.159c.525-2.955,1.059-5.908,1.584-8.864a.817.817,0,0,0,.014-.579Z" transform="translate(-234.283 -128)" fill="#fff"/>
    <path id="Path_132" data-name="Path 132" d="M275.5,231.12a.853.853,0,0,1-.012.586c-.525,2.954-1.06,5.908-1.584,8.864-.132.745.222,1.157.978,1.159q4.066,0,8.132,0a.986.986,0,0,1,.806.277.855.855,0,0,1-.032,1.2q-2.256,2.857-4.525,5.706l-5.227,6.587c-.042.053-.081.107-.126.161-.081.085-.143.25-.276.175s.02-.189.043-.28c.613-2.509,1.239-5.016,1.849-7.526.169-.7-.2-1.138-.938-1.139q-4.168,0-8.334,0a1.179,1.179,0,0,1-.8-.206.856.856,0,0,1-.086-1.255q1.949-2.782,3.906-5.56,2.961-4.218,5.926-8.426C275.281,231.331,275.326,231.179,275.5,231.12Z" transform="translate(-254.001 -183.552)" fill="#fdfdfd"/>
  </g>
</svg>
