<svg height="34.66" viewBox="0 0 33.97 34.66" width="33.97" xmlns="http://www.w3.org/2000/svg">
    <g id="google" transform="translate(-30.025 -29.098)">
        <path d="M92.55,70.311a21.675,21.675,0,0,0-.3-3.511H75.9v6.683h9.363a7.877,7.877,0,0,1-3.473,5.248l5.588,4.342A17.042,17.042,0,0,0,92.55,70.311Z" data-name="Path 8"
            fill="#4280ef"
            id="Path_8" transform="translate(-28.555 -23.467)" />
        <path d="M50.38,97.869a16.579,16.579,0,0,0,11.478-4.191l-5.588-4.3A10.512,10.512,0,0,1,40.639,83.9L34.9,88.317A17.313,17.313,0,0,0,50.38,97.869Z" data-name="Path 9"
            fill="#34a353"
            id="Path_9" transform="translate(-3.034 -34.111)" />
        <path d="M37.6,65.5a10.528,10.528,0,0,1,0-6.645L31.866,54.4a17.353,17.353,0,0,0,0,15.555Z" data-name="Path 10"
            fill="#f6b704"
            id="Path_10" transform="translate(0 -15.749)" />
        <path d="M50.38,35.97a9.455,9.455,0,0,1,6.645,2.605l4.946-4.984A16.678,16.678,0,0,0,50.38,29.1,17.312,17.312,0,0,0,34.9,38.651l5.739,4.455A10.367,10.367,0,0,1,50.38,35.97Z" data-name="Path 11"
            fill="#e54335"
            id="Path_11" transform="translate(-3.034 0)" />
    </g>
</svg>
