<svg xmlns="http://www.w3.org/2000/svg" width="27.998" height="24.501" viewBox="0 0 27.998 24.501">
  <g id="images" transform="translate(-0.002 -1)">
    <path id="Path_44" data-name="Path 44" d="M5.627,11.25A2.625,2.625,0,1,0,3,8.625,2.625,2.625,0,0,0,5.627,11.25Z" transform="translate(2.25 3.75)" fill="#fff"/>
    <path id="Path_45" data-name="Path 45" d="M24.5,22A3.5,3.5,0,0,1,21,25.5H3.5A3.5,3.5,0,0,1,0,22V8A3.5,3.5,0,0,1,3.5,4.5,3.5,3.5,0,0,1,7,1H24.5A3.5,3.5,0,0,1,28,4.5v14A3.5,3.5,0,0,1,24.5,22Zm0-19.251H7A1.75,1.75,0,0,0,5.249,4.5H21A3.5,3.5,0,0,1,24.5,8V20.251A1.75,1.75,0,0,0,26.25,18.5V4.5A1.75,1.75,0,0,0,24.5,2.75Zm-21,3.5A1.75,1.75,0,0,0,1.752,8V22l4.631-4.12a.875.875,0,0,1,1.1-.109l4.655,3.1,6.493-6.493a.875.875,0,0,1,1.01-.165l3.11,3.407V8A1.75,1.75,0,0,0,21,6.25H3.5Z" fill="#fff"/>
  </g>
</svg>
