<svg xmlns="http://www.w3.org/2000/svg" width="19.749" height="20.359" viewBox="0 0 19.749 20.359">
  <g id="Inbox_Icon" data-name="Inbox Icon" transform="translate(0 -0.128)">
    <path id="Fill_1" data-name="Fill 1" d="M9.885,20.359h-.01a1.789,1.789,0,0,1-1.5-.806L6.632,16.9H1.792A1.794,1.794,0,0,1,0,15.111V1.792A1.794,1.794,0,0,1,1.792,0H17.957a1.794,1.794,0,0,1,1.792,1.792V15.111A1.794,1.794,0,0,1,17.957,16.9H13.073l-1.691,2.632A1.786,1.786,0,0,1,9.885,20.359ZM1.792,1.792V15.111H7.6l2.277,3.456,2.219-3.456h5.863V1.792Z" transform="translate(0 0.128)" fill="#717171"/>
    <path id="Fill_4" data-name="Fill 4" d="M7.885,2.348H.363A.363.363,0,0,1,0,1.985V.363A.363.363,0,0,1,.363,0H7.885a.363.363,0,0,1,.363.363V1.985a.363.363,0,0,1-.363.363" transform="translate(5.751 7.96)" fill="#717171"/>
  </g>
</svg>
