<svg xmlns="http://www.w3.org/2000/svg" width="11.072" height="11.071" viewBox="0 0 11.072 11.071">
  <g id="link-45deg" transform="translate(-2.464 -1.965)">
    <path id="Path_48" data-name="Path 48" d="M4.715,6.542,3.343,7.914a3,3,0,0,0,4.243,4.243l1.828-1.829A3,3,0,0,0,8.586,5.5L8,6.086a1,1,0,0,0-.154.2,2,2,0,0,1,.861,3.337L6.88,11.45A2,2,0,0,1,4.05,8.62l.793-.792a4.018,4.018,0,0,1-.128-1.287Z" fill="#717171"/>
    <path id="Path_49" data-name="Path 49" d="M6.586,4.672A3,3,0,0,0,7.414,9.5l.775-.776a2,2,0,0,1-.9-3.346L9.12,3.55a2,2,0,1,1,2.83,2.83l-.793.792a4.023,4.023,0,0,1,.128,1.287l1.372-1.372A3,3,0,1,0,8.414,2.844Z" fill="#717171"/>
  </g>
</svg>
