<svg height="13" viewBox="0 0 13 13" width="13" xmlns="http://www.w3.org/2000/svg">
    <g data-name="Melody Icon" id="Melody_Icon" transform="translate(0)">
        <path d="M12.96,9.784a.732.732,0,0,0,.021-.187l-.232-7.89L12.744.313a.31.31,0,0,0-.363-.307L3.925,1.55a.318.318,0,0,0-.259.311.394.394,0,0,0-.007.076l.032,7.453a3.686,3.686,0,0,0-1.019-.136C1.192,9.261,0,10.1,0,11.139S1.208,13.007,2.688,13s2.676-.85,2.672-1.885a1.336,1.336,0,0,0-.05-.348L5.277,3l5.867-.979.187,6.347a3.69,3.69,0,0,0-1.019-.136c-1.48.007-2.676.85-2.672,1.885s1.208,1.868,2.688,1.861S13,11.125,13,10.091a1.338,1.338,0,0,0-.04-.307" data-name="Fill 1"
            fill="#fff"
            id="Fill_1" />
    </g>
</svg>
