<svg height="12" viewBox="0 0 16.001 12" width="16.001" xmlns="http://www.w3.org/2000/svg">
    <g id="person-check" transform="translate(0 -2)">
        <path d="M6,8A3,3,0,1,0,3,5,3,3,0,0,0,6,8ZM8,5A2,2,0,1,1,6,3,2,2,0,0,1,8,5Zm4,8a.979.979,0,0,1-1,1H1a.979.979,0,0,1-1-1c0-1,1-4,6-4S12,12,12,13Zm-1,0a2.672,2.672,0,0,0-.832-1.664A5.624,5.624,0,0,0,6,10a5.623,5.623,0,0,0-4.168,1.332A2.678,2.678,0,0,0,1,13Z" data-name="Path 50"
            id="Path_50" />
        <path d="M15.854,5.146a.5.5,0,0,1,0,.708l-3,3a.5.5,0,0,1-.708,0l-1.5-1.5a.5.5,0,0,1,.708-.708L12.5,7.793l2.646-2.647a.5.5,0,0,1,.708,0Z" data-name="Path 51"
            fill-rule="evenodd"
            id="Path_51" />
    </g>
</svg>
