<svg width="298" height="99" viewBox="0 0 298 99" fill="none" xmlns="http://www.w3.org/2000/svg">
<circle cx="71" cy="4" r="3.5" fill="#E0E0E0" stroke="#E0E0E0"/>
<circle cx="80" cy="28" r="1.5" fill="#E0E0E0" stroke="#E0E0E0"/>
<circle cx="254" cy="43" r="4.5" stroke="#00CCC9"/>
<circle cx="41" cy="36" r="2" fill="#00CCC9"/>
<circle cx="296" cy="65" r="1.5" fill="#E0E0E0" stroke="#E0E0E0"/>
<path d="M231.5 70C231.5 70.8284 230.828 71.5 230 71.5C229.172 71.5 228.5 70.8284 228.5 70C228.5 69.1716 229.172 68.5 230 68.5C230.828 68.5 231.5 69.1716 231.5 70Z" fill="#E0E0E0" stroke="#E0E0E0"/>
<circle cx="41.5" cy="85.5" r="2" fill="#E0E0E0" stroke="#E0E0E0"/>
<circle cx="226.5" cy="13.5" r="2" fill="#E0E0E0" stroke="#E0E0E0"/>
<circle cx="85.5" cy="95.5" r="3.5" fill="#00CCC9"/>
<circle cx="64.5" cy="64.5" r="1" fill="#E0E0E0" stroke="#E0E0E0"/>
<circle cx="274.5" cy="79.5" r="1" fill="#E0E0E0" stroke="#E0E0E0"/>
<circle cx="3.5" cy="64.5" r="3" stroke="#E0E0E0"/>
</svg>
