<svg xmlns="http://www.w3.org/2000/svg" width="18.073" height="20.863" viewBox="0 0 18.073 20.863">
  <g id="profile_1" transform="translate(0 0)">
    <path id="Fill_1" data-name="Fill 1" d="M5.61,11.219A5.61,5.61,0,1,1,11.22,5.61,5.616,5.616,0,0,1,5.61,11.219Zm0-9.428A3.818,3.818,0,1,0,9.428,5.61,3.822,3.822,0,0,0,5.61,1.792Z" transform="translate(3.427 0)" fill="#bfbfbf"/>
    <path id="Fill_3" data-name="Fill 3" d="M18.06,7.11a8.288,8.288,0,0,0-3.066-5.273A9.668,9.668,0,0,0,9.037,0,9.668,9.668,0,0,0,3.079,1.836,8.288,8.288,0,0,0,.014,7.11a.9.9,0,1,0,1.765.31c.627-3.576,3.273-5.627,7.258-5.627s6.631,2.051,7.258,5.627a.9.9,0,1,0,1.765-.31" transform="translate(0 12.703)" fill="#bfbfbf"/>
  </g>
</svg>
