<svg xmlns="http://www.w3.org/2000/svg" xmlns:xlink="http://www.w3.org/1999/xlink" width="37.5" height="28.5" viewBox="0 0 37.5 28.5">
  <defs>
    <filter id="Fill_1" x="0" y="0" width="37.5" height="28.5" filterUnits="userSpaceOnUse">
      <feOffset dy="0.5" input="SourceAlpha"/>
      <feGaussianBlur stdDeviation="0.25" result="blur"/>
      <feFlood flood-opacity="0.149"/>
      <feComposite operator="in" in2="blur"/>
      <feComposite in="SourceGraphic"/>
    </filter>
  </defs>
  <g id="shared_Icon" transform="translate(0.75 0.25)">
    <g transform="matrix(1, 0, 0, 1, -0.75, -0.25)" filter="url(#Fill_1)">
      <path id="Fill_1-2" data-name="Fill 1" d="M21.979.438A1.767,1.767,0,0,0,21.76.256a1.468,1.468,0,0,0-2.285,1.2V6.334a29.769,29.769,0,0,0-5.26.379C5.357,8.143,1.191,16.724.113,24.554a4.534,4.534,0,0,0-.035,1.771.821.821,0,0,0,.559.593.665.665,0,0,0,.4-.031,1.51,1.51,0,0,0,.7-.687c1.635-2.95,4.878-4.475,8.148-5.039.892-.154,9.6-.423,9.6-.245v4.629a1.468,1.468,0,0,0,2.285,1.2,1.779,1.779,0,0,0,.219-.182l13.5-11.841a1.7,1.7,0,0,0,0-2.441Z" transform="translate(0.75 0.25)" fill="rgba(255,255,255,0.9)"/>
    </g>
  </g>
</svg>
