<svg height="49" id="spinning_disc" viewBox="0 0 49 49" width="49" xmlns="http://www.w3.org/2000/svg">
    <defs>
        <radialGradient cx="0.5" cy="0.5" gradientUnits="objectBoundingBox" id="radial-gradient"
            r="0.508">
            <stop offset="0" stop-color="#232323" />
            <stop offset="0.995" stop-color="#202020" />
            <stop offset="1" stop-color="#e9e9e9" />
        </radialGradient>
        <linearGradient gradientUnits="objectBoundingBox" id="linear-gradient" x1="0.235" x2="0.714" y1="0.194"
            y2="0.769">
            <stop offset="0" stop-color="#181818" />
            <stop offset="0.473" stop-color="#353434" />
            <stop offset="0.509" stop-color="#333" />
            <stop offset="1" stop-color="#1f1e1d" />
        </linearGradient>
    </defs>
    <g id="Disc">
        <circle cx="24.5" cy="24.5" data-name="Disc" fill="url(#radial-gradient)" id="Disc-2"
            r="24.5" transform="translate(0 49) rotate(-90)" />
        <circle cx="24.5" cy="24.5" data-name="Disc" fill="url(#linear-gradient)" id="Disc-3"
            r="24.5" transform="translate(0 49) rotate(-90)" />
    </g>
    <circle cx="13.5" cy="13.5" fill="#2dcbc8" id="Cover" r="13.5" transform="translate(11 11)" />
    <g id="music-note" transform="translate(16 16.779)">
        <path d="M9,13a2.292,2.292,0,0,1-2.5,2A2.292,2.292,0,0,1,4,13a2.292,2.292,0,0,1,2.5-2A2.292,2.292,0,0,1,9,13Z" data-name="Path 30"
            fill="#fff"
            id="Path_30" />
        <path d="M9,3V13H8V3Z" data-name="Path 31" fill="#fff" fill-rule="evenodd" id="Path_31" />
        <path d="M8,2.82a1,1,0,0,1,.8-.98l3-.6a1,1,0,0,1,1.2.98V4L8,5Z" data-name="Path 32"
            fill="#fff" id="Path_32" />
    </g>
</svg>
