<svg height="97.002" viewBox="0 0 84.002 97.002" width="84.002" xmlns="http://www.w3.org/2000/svg">
    <defs>
        <filter filterUnits="userSpaceOnUse" height="97.002" id="Union_2" width="84.002" x="0"
            y="0">
            <feOffset dy="3" input="SourceAlpha" />
            <feGaussianBlur result="blur" stdDeviation="3" />
            <feFlood flood-opacity="0.161" />
            <feComposite in2="blur" operator="in" />
            <feComposite in="SourceGraphic" />
        </filter>
        <filter filterUnits="userSpaceOnUse" height="76" id="Union_1" width="67" x="8.001" y="12">
            <feOffset dy="3" input="SourceAlpha" />
            <feGaussianBlur result="blur-2" stdDeviation="3" />
            <feFlood flood-opacity="0.161" />
            <feComposite in2="blur-2" operator="in" />
            <feComposite in="SourceGraphic" />
        </filter>
        <linearGradient gradientUnits="objectBoundingBox" id="linear-gradient" x1="0.121" x2="0.574" y1="0.716"
            y2="0.702">
            <stop offset="0" stop-color="#1e234d" />
            <stop offset="1" stop-color="#2dcbc8" />
        </linearGradient>
    </defs>
    <g data-name="Group 10519" id="Group_10519" transform="translate(-7080.999 -187)">
        <g data-name="Group 10504" id="Group_10504" transform="translate(-343.33 -944.87)">
            <g filter="url(#Union_2)" transform="matrix(1, 0, 0, 1, 7424.33, 1131.87)">
                <path d="M.08,48.386A32.952,32.952,0,0,1,27.231,13.673L33.228,0,39.26,13.754A32.912,32.912,0,0,1,35.3,78.92c-.785.055-1.566.082-2.341.082A32.953,32.953,0,0,1,.08,48.386Z" data-name="Union 2"
                    fill="#1e234d"
                    id="Union_2-2" transform="translate(9 6)" />
            </g>
            <g filter="url(#Union_1)" transform="matrix(1, 0, 0, 1, 7424.33, 1131.87)">
                <g data-name="Union 1" fill="#fff" id="Union_1-2" transform="translate(17 18)">
                    <path
                        d="M 24.50015068054199 57 C 21.32551002502441 57 18.24649047851562 56.38697814941406 15.34860992431641 55.17795944213867 C 12.54996967315674 54.01034927368164 10.03654956817627 52.33882141113281 7.878159999847412 50.20980834960938 C 5.720719814300537 48.08174896240234 4.027120113372803 45.60420989990234 2.844409942626953 42.84603118896484 C 1.620550036430359 39.99190139770508 1 36.95964050292969 1 33.83346176147461 C 1 31.04355049133301 1.497470021247864 28.31627082824707 2.478579998016357 25.72738075256348 C 3.426810026168823 23.22529029846191 4.799779891967773 20.91817092895508 6.559340000152588 18.87010955810547 C 10.10610008239746 14.74182987213135 15.0178804397583 11.95380973815918 20.38989067077637 11.01961994171143 L 20.91613006591797 10.92811012268066 L 21.1326904296875 10.43984031677246 L 24.66897964477539 2.466476678848267 L 28.23510932922363 10.50662040710449 L 28.44775009155273 10.98604011535645 L 28.96303939819336 11.08368015289307 C 34.25312042236328 12.08615970611572 39.07897186279297 14.89750957489014 42.55162048339844 18.99987030029297 C 44.27737045288086 21.03856086730957 45.623291015625 23.32921981811523 46.55197143554688 25.80821990966797 C 47.51280975341797 28.37306976318359 48 31.07315063476562 48 33.83346176147461 C 48 36.95962905883789 47.37945175170898 39.99190139770508 46.15560150146484 42.84603118896484 C 44.9728889465332 45.60420989990234 43.27930068969727 48.08174896240234 41.12187957763672 50.20981979370117 C 38.96350860595703 52.33882141113281 36.45011901855469 54.01034927368164 33.65151977539062 55.17795944213867 C 30.7536792755127 56.38697814941406 27.67472076416016 57 24.50015068054199 57 Z"
                        stroke="none" />
                    <path
                        d="M 24.50015068054199 56 C 27.54183959960938 56 30.49126052856445 55.41292190551758 33.26647186279297 54.25506973266602 C 35.94625091552734 53.13703155517578 38.35292053222656 51.53647994995117 40.41962814331055 49.49787902832031 C 42.48445129394531 47.46115875244141 44.1050910949707 45.09056091308594 45.23653030395508 42.45193099975586 C 46.40668106079102 39.72304153442383 47 36.82337188720703 47 33.83346176147461 C 47 31.193359375 46.5341911315918 28.61130905151367 45.61552047729492 26.15903091430664 C 44.72727966308594 23.78797912597656 43.43964004516602 21.59667015075684 41.78836822509766 19.64596939086914 C 38.46334075927734 15.71800994873047 33.84243011474609 13.02612972259521 28.77685928344727 12.06620025634766 L 27.74628067016602 11.87090015411377 L 24.66900062561035 4.932937145233154 L 21.61370086669922 11.82180976867676 L 20.56121063232422 12.00483989715576 C 15.41711044311523 12.89939022064209 10.71385955810547 15.56894969940186 7.317850112915039 19.52177047729492 C 5.634190082550049 21.48148918151855 4.320640087127686 23.68858909606934 3.413690090179443 26.08176040649414 C 2.475630044937134 28.55702018737793 2 31.16506004333496 2 33.83346176147461 C 2 36.82337188720703 2.593319892883301 39.72304153442383 3.763469934463501 42.45193099975586 C 4.894919872283936 45.09056091308594 6.515570163726807 47.46115875244141 8.580400466918945 49.49787902832031 C 10.64713001251221 51.53646850585938 13.05383014678955 53.13702011108398 15.73365020751953 54.25505828857422 C 18.50890922546387 55.41292190551758 21.4583797454834 56 24.50015068054199 56 M 24.50015068054199 58 C 10.96905040740967 58 -3.552713678800501e-15 47.18017959594727 -3.552713678800501e-15 33.83346176147461 C -3.552713678800501e-15 21.92753028869629 8.7293701171875 12.0323600769043 20.21855926513672 10.03441047668457 L 24.66894912719727 -3.552713678800501e-15 L 29.14922904968262 10.10116958618164 C 40.45660018920898 12.24392032623291 49 22.05460929870605 49 33.83346176147461 C 49 47.18017959594727 38.03096008300781 58 24.50015068054199 58 Z"
                        fill="#2dcbc8" stroke="none" />
                </g>
            </g>
        </g>
        <g id="logo2" transform="translate(7025.288 -143)">
            <g data-name="Group 10518" id="Group_10518" transform="translate(77.2 376)">
                <path d="M83.364,376.74a.743.743,0,0,1-.74.74H81.069v1.759a1.1,1.1,0,0,0-.74-.3,1.034,1.034,0,0,0-.74.3v-1.759H77.94a.74.74,0,1,1,0-1.481h4.683A.743.743,0,0,1,83.364,376.74ZM81.069,380v8.219a.74.74,0,0,1-1.481,0v-8.293a.744.744,0,0,1,.74-.666.729.729,0,0,1,.74.666Z" data-name="Path 147"
                    fill="#161823"
                    id="Path_147" transform="translate(-77.2 -376)" />
                <path d="M121.481,379.458A3.308,3.308,0,0,0,120,381.031V376.94a.74.74,0,0,1,1.481,0Zm4.35,3.073a.745.745,0,0,1-.74.685.72.72,0,0,1-.74-.685v-.056a1.662,1.662,0,0,0-.444-1.129,1.423,1.423,0,0,0-1-.444,1.35,1.35,0,0,0-.981.444,1.58,1.58,0,0,0-.444,1.129.74.74,0,1,1-1.481,0,3.11,3.11,0,0,1,1.481-2.666,2.884,2.884,0,0,1,1.425-.389,3,3,0,0,1,2.925,3.054Zm-5.091,1a1.034,1.034,0,0,0,.74-.3v5.146a.74.74,0,0,1-1.481,0v-5.146A1.034,1.034,0,0,0,120.74,383.53Zm5.091,4.85a.74.74,0,1,1-1.481,0v-5.146a1.034,1.034,0,0,0,.74.3,1.1,1.1,0,0,0,.74-.3Z" data-name="Path 148"
                    fill="#161823"
                    id="Path_148" transform="translate(-112.077 -376.163)" />
                <path d="M167.517,395.71a.734.734,0,0,1-1.037-.093,1.358,1.358,0,0,0-1.074-.537,1.284,1.284,0,0,0-.981.444,1.662,1.662,0,0,0-.444,1.129.74.74,0,0,1-1.481,0v-2.2a.743.743,0,0,1,.74-.74.764.764,0,0,1,.629.352,2.778,2.778,0,0,1,1.536-.463,2.834,2.834,0,0,1,2.221,1.074A.721.721,0,0,1,167.517,395.71Zm-3.536,1.685v5.165a.74.74,0,0,1-1.481,0v-5.165a1.029,1.029,0,0,0,1.481,0Z" data-name="Path 149"
                    fill="#161823"
                    id="Path_149" transform="translate(-146.71 -390.342)" />
                <path d="M233.581,385.307a1.034,1.034,0,0,0-.74-.3,1.066,1.066,0,0,0-.74.3V376.94a.74.74,0,1,1,1.481,0Zm-.74.018a.743.743,0,0,1,.74.74,1.662,1.662,0,0,0,.444,1.129,1.284,1.284,0,0,0,.981.444,1.358,1.358,0,0,0,1.074-.537.734.734,0,0,1,1.037-.093.721.721,0,0,1,.111,1.037,2.834,2.834,0,0,1-2.221,1.074,2.993,2.993,0,0,1-2.906-3.054A.743.743,0,0,1,232.84,385.326Z" data-name="Path 150"
                    fill="#161823"
                    id="Path_150" transform="translate(-203.426 -376.163)" />
                <path d="M271.681,385.307a1.034,1.034,0,0,0-.74-.3,1.066,1.066,0,0,0-.74.3V376.94a.74.74,0,0,1,1.481,0Zm-.74.018a.743.743,0,0,1,.74.74,1.662,1.662,0,0,0,.444,1.129,1.284,1.284,0,0,0,.981.444,1.358,1.358,0,0,0,1.074-.537.734.734,0,0,1,1.037-.093.721.721,0,0,1,.111,1.037,2.834,2.834,0,0,1-2.221,1.074,2.993,2.993,0,0,1-2.906-3.054A.743.743,0,0,1,270.94,385.326Z" data-name="Path 151"
                    fill="#161823"
                    id="Path_151" transform="translate(-234.473 -376.163)" />
            </g>
            <g data-name="Group 10471" id="Group_10471" transform="translate(98.342 377.666)">
                <ellipse cx="2.052" cy="1.874" data-name="Ellipse 17" fill="#2dcbc8" id="Ellipse_17"
                    rx="2.052" ry="1.874" transform="translate(1.096)" />
                <path d="M-3687.936,113.16a23.361,23.361,0,0,1,2.333.19,6.676,6.676,0,0,1,1.6.432,13.976,13.976,0,0,0-1.864,3.209,16.7,16.7,0,0,0-.875,3.8,4.184,4.184,0,0,1-1.7-2.784,8.482,8.482,0,0,1-.086-2.144A13.473,13.473,0,0,1-3687.936,113.16Z" data-name="Path 115"
                    fill="#2dcbc8"
                    id="Path_115" transform="translate(3688.56 -109.187)" />
                <path d="M-3468.783,185.423a14.843,14.843,0,0,0-1.964,3.345,13.358,13.358,0,0,0-.787,3.673,2.484,2.484,0,0,0,1.187,0,7.025,7.025,0,0,0,1.844-.986,15.237,15.237,0,0,0,3.045-3.273s-4.208,3.974-5.046,3.273c-.336-.281-.472-1.007.157-2.48S-3468.783,185.423-3468.783,185.423Z" data-name="Path 117"
                    fill="url(#linear-gradient)"
                    id="Path_117" transform="translate(3473.34 -180.849)" />
            </g>
        </g>
    </g>
</svg>
