<svg xmlns="http://www.w3.org/2000/svg" width="31.084" height="34.413" viewBox="0 0 31.084 34.413">
  <g id="stopwatch" transform="translate(-0.999 -0.5)">
    <path id="Path_42" data-name="Path 42" d="M13.991,6.21a1.11,1.11,0,0,0-2.22,0v6.439H5.11a1.11,1.11,0,0,0,0,2.22h7.771a1.11,1.11,0,0,0,1.11-1.11Z" transform="translate(3.662 5.613)" fill="#fff"/>
    <path id="Path_43" data-name="Path 43" d="M13.213,1.61A1.11,1.11,0,0,1,14.323.5h4.44a1.11,1.11,0,1,1,0,2.22V3.986A15.486,15.486,0,0,1,26.72,7.627l.027-.029.786-.786-.786-.784a1.111,1.111,0,0,1,1.57-1.572L31.456,7.6a1.11,1.11,0,1,1-1.57,1.57L29.1,8.382l-.786.786-.029.027A15.542,15.542,0,1,1,14.323,3.988V2.72A1.11,1.11,0,0,1,13.213,1.61Zm3.33,4.44A13.321,13.321,0,1,0,29.865,19.372,13.321,13.321,0,0,0,16.543,6.051Z" transform="translate(0 0)" fill="#fff"/>
  </g>
</svg>
