<?xml version="1.0" encoding="UTF-8"?>
<svg width="312px" height="140px" viewBox="0 0 312 140" version="1.1" xmlns="http://www.w3.org/2000/svg" xmlns:xlink="http://www.w3.org/1999/xlink">
    <title>Untitled 13</title>
    <g id="Page-1" stroke="none" stroke-width="1" fill="none" fill-rule="evenodd">
        <g id="Group-19-(2)" transform="translate(0.000000, 1.195070)">
            <circle id="Oval" fill="#FFFFFF" fill-rule="nonzero" cx="39.883" cy="5.83431" r="2.50216"></circle>
            <circle id="Oval" fill="#FFFFFF" fill-rule="nonzero" cx="81.6988" cy="13.13023" r="1.66607"></circle>
            <circle id="Oval" stroke="#00CCC9" cx="307.113" cy="97.18753" r="3.3875"></circle>
            <circle id="Oval" fill="#00CCC9" fill-rule="nonzero" cx="21.244" cy="53.45463" r="1.25108"></circle>
            <circle id="Oval" fill="#FFFFFF" fill-rule="nonzero" cx="284.483" cy="124.53993" r="1.25108"></circle>
            <circle id="Oval" fill="#FFFFFF" fill-rule="nonzero" cx="252.688" cy="1.66607" r="1.66607"></circle>
            <circle id="Oval" fill="#FFFFFF" fill-rule="nonzero" cx="1.66607" cy="84.96963" r="1.66607"></circle>
            <circle id="Oval" fill="#FFFFFF" fill-rule="nonzero" cx="260.36" cy="38.21743" r="1.56385"></circle>
            <circle id="Oval" fill="#00CCC9" fill-rule="nonzero" cx="53.3288" cy="116.82893" r="2.18939"></circle>
            <circle id="Oval" fill="#FFFFFF" fill-rule="nonzero" cx="83.9058" cy="129.31493" r="1"></circle>
            <circle id="Oval" fill="#FFFFFF" fill-rule="nonzero" cx="234.188" cy="137.55593" r="1"></circle>
            <circle id="Oval" stroke="#FFFFFF" cx="31.5527" cy="127.43293" r="2.27679"></circle>
        </g>
        <g id="image-21-(Traced)-(2)" transform="translate(276.000000, 50.000000)" fill="#FFE07D">
            <path d="M17.2456997,0.205610816 C11.3492997,1.27274982 4.78438972,6.55496982 1.85388972,12.5900998 C0.159039724,16.0807998 -0.387580276,19.2826998 0.271219724,21.8629998 C0.734109724,23.6758998 1.20325972,24.3745998 3.60783972,26.8321998 C6.03679972,29.3147998 7.17899972,30.1741998 8.72239972,30.6803998 C9.61529972,30.9733998 9.96449972,31.0112998 11.6425997,30.9975998 C13.7412997,30.9806998 14.7978997,30.7691998 16.8160997,29.9622998 C22.9520997,27.5088998 28.6936997,21.3375998 30.4295997,15.3299998 C31.2697997,12.4216998 31.1807997,9.80396982 30.1689997,7.66969982 C29.7231997,6.72938982 29.4110997,6.35790982 27.1242997,4.04566982 C24.8171997,1.71268982 24.4733997,1.41839982 23.4871997,0.930581816 C21.6348997,0.0146855159 19.6040997,-0.221243184 17.2456997,0.205610816 Z M21.8109997,2.71109982 C24.9257997,3.87846982 25.9582997,7.19565982 24.5502997,11.5114998 C22.5884997,17.5245998 17.0928997,22.9335998 11.0973997,24.7522998 C10.0620997,25.0663998 9.60959972,25.1256998 8.17099972,25.1363998 C6.27439972,25.1505998 5.54543972,24.9763998 4.44525972,24.2463998 C2.28914972,22.8157998 1.73095972,19.4922998 3.02826972,15.8096998 C4.50761972,11.6106998 7.40719972,7.94926982 11.3630997,5.28462982 C15.1404997,2.74041982 19.2127997,1.73737982 21.8109997,2.71109982 Z M28.3199997,9.37793982 C29.1749997,12.0969998 28.1648997,16.0171998 25.6270997,19.8303998 C24.3546997,21.7420998 21.6536997,24.4345998 19.7039997,25.7350998 C16.3610997,27.9644998 12.8473997,29.0587998 10.3959997,28.6339998 C9.43919972,28.4681998 7.89869972,27.8631998 7.89869972,27.6532998 C7.89869972,27.5886998 8.25089972,27.5347998 8.68149972,27.5337998 C11.2986997,27.5277998 14.8218997,26.1234998 18.1521997,23.7585998 C19.9074997,22.5119998 22.9106997,19.4264998 24.0759997,17.6723998 C26.1253997,14.5872998 27.4928997,10.8871998 27.5063997,8.39112982 L27.5093997,7.82939982 L27.7785997,8.17032982 C27.9263997,8.35784982 28.1700997,8.90130982 28.3199997,9.37793982 Z M13.9570997,9.74682982 C11.4111997,10.6021998 9.07689972,11.3967998 8.76989972,11.5125998 C8.19319972,11.7299998 7.89869972,12.1404998 7.89869972,12.7267998 C7.89869972,13.1548998 8.52939972,13.7616998 8.97439972,13.7616998 C9.17119972,13.7616998 11.6287997,12.9952998 14.4355997,12.0586998 C18.0660997,10.8470998 19.6076997,10.2719998 19.7772997,10.0660998 C20.3438997,9.37766982 19.8189997,8.15710982 18.9664997,8.18096982 C18.7572997,8.18683982 16.5029997,8.89148982 13.9570997,9.74682982 Z M11.9829997,16.4196998 C9.12359972,17.3674998 8.71559972,17.6161998 8.71559972,18.4122998 C8.71559972,18.9347998 9.25329972,19.4894998 9.75989972,19.4894998 C10.4125997,19.4894998 15.2881997,17.8275998 15.6246997,17.4903998 C15.9647997,17.1497998 16.0317997,16.4272998 15.7565997,16.0681998 C15.5595997,15.8112998 15.0682997,15.5334998 14.8169997,15.5371633 C14.7183997,15.5385998 13.4431997,15.9356998 11.9829997,16.4196998 Z" id="Shape"></path>
        </g>
        <g id="image-21-(Traced)-(1)" transform="translate(64.999999, 1.000000)" fill="#FFD064">
            <path d="M3.97394066,0.141827016 C1.76386066,0.637874016 0.333320661,2.22518002 0.0469006608,4.49913002 C-0.209319339,6.53301002 0.592800661,9.14364002 2.24385066,11.6497 C2.99285066,12.7866 5.25010066,14.9998 6.52400066,15.8464 C11.3993007,19.0862 16.1817007,18.6252 17.6886007,14.7702 C18.0325007,13.8903 18.1038007,12.0655 17.8410007,10.8735 C16.7399007,5.88039002 11.5287007,0.907163016 6.55630066,0.103997016 C5.62522066,-0.0463167841 4.75562066,-0.0336694841 3.97394066,0.141827016 Z M7.43970066,2.28841002 C9.34490066,2.92437002 10.9664007,3.92609002 12.4051007,5.35614002 C15.8334007,8.76343002 17.1199007,13.2162 15.2350007,15.1509 C14.5734007,15.83 13.9792007,16.0405 12.7316007,16.0377275 C11.5019007,16.035 10.6396007,15.8347 9.39920066,15.2634 C8.07690066,14.6544 6.72500066,13.6951 5.54090066,12.5259 C4.31538066,11.3157 3.63441066,10.4046 2.98511066,9.10626002 C2.24609066,7.62841002 2.03984066,6.89755002 1.98067066,5.54697002 C1.92891066,4.36617002 1.93598066,4.32140002 2.28382066,3.61718002 C2.71732066,2.73924002 3.39155066,2.22887002 4.47919066,1.95511002 C4.98456066,1.82796002 6.60780066,2.01073002 7.43970066,2.28841002 Z" id="Shape"></path>
        </g>
        <g id="image-21-(Traced)" transform="translate(7.000000, 73.000000)" fill="#FFE07D">
            <path d="M14.898403,0.104148796 C12.875003,0.363581796 10.170403,1.4919598 8.56480302,2.7464798 C8.14160302,3.0771198 6.61930302,4.5693098 5.18203302,6.0623598 C3.11552302,8.2089098 2.43990302,8.9929098 1.95358302,9.8087598 C0.86978302,11.6271998 0.24589302,13.6246998 0.0569530197,15.8815998 C-0.65488698,24.3842998 5.38458302,33.2618998 13.773703,36.0447998 C18.813603,37.7165998 23.449103,37.1859998 27.138103,34.5153998 C28.179403,33.7614998 32.433603,29.4407998 33.324903,28.2319998 C35.217903,25.6644998 36.128603,22.6237998 35.985403,19.3486998 C35.829203,15.7787998 34.721003,12.3719998 32.698503,9.2446898 C31.565903,7.4935498 28.779403,4.6056398 27.156703,3.5013198 C23.305003,0.880017796 18.732003,-0.387376204 14.898403,0.104148796 Z M19.496803,2.4042898 C23.219803,3.1777298 26.149003,4.8679898 28.990103,7.8822698 C31.432003,10.4729998 32.889303,13.2531998 33.662703,16.7968998 C35.190203,23.7959998 31.392903,29.9596998 24.829703,31.1344998 C21.793603,31.6778998 17.942603,30.8245998 14.631803,28.8750998 C11.809703,27.2131998 8.88090302,24.0472998 7.43010302,21.0902998 C6.15180302,18.4845998 5.33616302,14.8763998 5.54025302,12.7300998 C6.05390302,7.3310898 9.28500302,3.4489498 14.188103,2.3395198 C15.346603,2.0774198 18.084203,2.1108398 19.496803,2.4042898 Z M14.729703,4.3522898 C11.456103,5.0116198 8.99600302,7.2851498 7.97000302,10.5996998 C7.60190302,11.7886998 7.51120302,14.4168998 7.78640302,15.9189998 C8.35770302,19.0380998 9.87540302,21.8615998 12.345803,24.4013998 C14.348203,26.4601998 16.285503,27.6997998 18.745903,28.4967998 C20.337903,29.0124998 21.435103,29.1841998 23.066903,29.1730998 C25.304003,29.1579998 27.141503,28.5039998 28.831103,27.1216998 C31.205403,25.1791998 32.382403,21.6030998 31.841103,17.9764998 C31.349603,14.6834998 29.806403,11.6761998 27.274003,9.0756698 C24.801803,6.5369898 22.088803,4.9914498 19.074503,4.4045398 C18.051303,4.2052598 15.605703,4.1758498 14.729703,4.3522898 Z M18.563103,6.4240998 C24.102403,7.4032598 29.058003,12.6596998 29.879703,18.4274998 C30.658103,23.8917998 26.782603,27.8697998 21.459103,27.0707998 C16.190503,26.2799998 11.260603,21.6712998 9.91100302,16.2750998 C9.54520302,14.8125998 9.49660302,12.8622998 9.79440302,11.5854998 C10.259603,9.5905198 11.547903,7.9224898 13.319003,7.0215898 C14.920003,6.2071998 16.389303,6.0398698 18.563103,6.4240998 Z M19.487803,9.3541698 C19.352203,9.5046098 18.300703,11.5647998 17.151103,13.9325998 C14.905003,18.5583998 14.897403,18.5821998 15.501303,19.1360998 C15.822003,19.4300998 16.253803,19.4863998 16.625103,19.2823998 C16.967403,19.0943998 21.113503,10.5325998 21.113503,10.0139998 C21.113503,9.1795598 20.038403,8.7431998 19.487803,9.3541698 Z M3.61545302,12.2760998 C3.34246302,16.3687998 4.45799302,20.4526998 6.87490302,24.2077998 C7.98990302,25.9399998 10.763803,28.7722998 12.512803,29.9640998 C16.132903,32.4307998 20.710203,33.7183998 24.309903,33.2825998 C24.863303,33.2155998 25.334903,33.1800998 25.357803,33.2036998 C25.435703,33.2835998 23.781203,34.0771998 23.007703,34.3307998 C21.619403,34.7859998 20.857503,34.8939998 19.101003,34.8845998 C16.649703,34.8713998 14.729003,34.4054998 12.412303,33.2621998 C7.98840302,31.0789998 4.38743302,26.9623998 2.84548302,22.3257998 C2.22243302,20.4520998 2.02674302,19.0566998 2.08712302,16.9183998 C2.15093302,14.6590998 2.36792302,13.6390998 3.14073302,11.9665998 C3.41100302,11.3818998 3.64789302,10.9194998 3.66719302,10.9392998 C3.68648302,10.9590998 3.66316302,11.5607998 3.61545302,12.2760998 Z M21.789003,16.3930998 C21.512403,16.4966998 21.275103,16.8923998 20.338803,18.8125998 C19.235003,21.0761998 19.078503,21.5855998 19.335303,22.0779998 C19.521903,22.4358998 20.118303,22.5929998 20.561303,22.4011998 C20.889503,22.2589998 21.079403,21.9397998 22.095803,19.8216998 C23.205303,17.5090998 23.249403,17.3868998 23.115503,16.9963998 C23.019503,16.7165998 22.851803,16.5353998 22.581103,16.4192998 C22.364103,16.3262998 22.171503,16.2544998 22.153203,16.2596998 C22.134803,16.2648998 21.971003,16.3249998 21.789003,16.3930998 Z" id="Shape"></path>
        </g>
    </g>
</svg>