<svg xmlns="http://www.w3.org/2000/svg" width="26.371" height="40.366" viewBox="0 0 26.371 40.366">
  <g id="woman-makeup" transform="translate(0.155 0.216)">
    <path id="Path_120" data-name="Path 120" d="M22.8,31.086a.487.487,0,1,1,.974-.01,4.971,4.971,0,0,1-.179,1.387,5.623,5.623,0,0,1-.518,1.254.486.486,0,1,1-.85-.472,4.611,4.611,0,0,0,.43-1.035,3.982,3.982,0,0,0,.143-1.123ZM8.361,24.369a1.057,1.057,0,0,1,.56.967.979.979,0,0,1-.9,1.045.979.979,0,0,1-.9-1.045,1.05,1.05,0,0,1,.586-.98l-.026,0a3.2,3.2,0,0,0-2.029,1.035.486.486,0,0,1-.7-.677A4.133,4.133,0,0,1,7.6,23.4a5.587,5.587,0,0,1,3.093.742.485.485,0,0,1-.449.86,5.371,5.371,0,0,0-1.885-.628Zm8.511-.124a1.057,1.057,0,0,0-.56.967.906.906,0,1,0,1.791,0,1.05,1.05,0,0,0-.586-.98l.026,0a3.213,3.213,0,0,1,2.029,1.035.486.486,0,0,0,.7-.677,4.153,4.153,0,0,0-2.637-1.325,5.587,5.587,0,0,0-3.093.742.485.485,0,1,0,.449.86,5.427,5.427,0,0,1,1.885-.625ZM1.289,25.687a.657.657,0,0,1-.059-.117A23.189,23.189,0,0,1,.035,20.012a12.425,12.425,0,0,1,.674-5.275A13.226,13.226,0,0,1,5.1,9.072,15.169,15.169,0,0,1,6.827,7.922a4.937,4.937,0,0,1-.85-3.767A4.44,4.44,0,0,1,7.5,1.752a7.314,7.314,0,0,1,2.709-1.4,8.512,8.512,0,0,1,6.847.807,7.231,7.231,0,0,1,1.97,1.807A4.113,4.113,0,0,1,19.8,5.62a4.442,4.442,0,0,1-.345,1.472A6.268,6.268,0,0,1,19,7.984a14.248,14.248,0,0,1,5.216,4.721,12.005,12.005,0,0,1,1.82,5.74A19.877,19.877,0,0,1,25,25.674a.489.489,0,0,1-.29.309q.029.1.049.205a3.036,3.036,0,0,1-.124,1.651,3.2,3.2,0,0,1-.915,1.322,3.162,3.162,0,0,1-2.436.736c-.055.12-.111.241-.169.361a14.722,14.722,0,0,1-.856,1.517l.322,1.364,2.706,4.711h0a.615.615,0,0,1,.036.081,1.526,1.526,0,0,1-.615,1.836,1.453,1.453,0,0,1-.716.228,1.313,1.313,0,0,1-1.042-.42h0c-.01-.013-.02-.023-.029-.036l-3.253-4.2a.25.25,0,0,1-.059-.059l-.322-.221c-.107.081-.221.16-.335.238-.189.13-.378.247-.56.352a6.909,6.909,0,0,1-1.042.482,6.578,6.578,0,0,1-1.166.306,7.217,7.217,0,0,1-1.5.1,6.9,6.9,0,0,1-1.56-.231h0c-.016,0-.029-.01-.046-.013a10.734,10.734,0,0,1-5.916-5.32c-.179-.345-.348-.707-.5-1.081a3.159,3.159,0,0,1-3.38-2.055,3.036,3.036,0,0,1-.124-1.651,2.611,2.611,0,0,1,.137-.5ZM9.227,6.848a11.024,11.024,0,0,1,2.481-.537l.231-.02c.329-.026.654-.036.983-.033a11.35,11.35,0,0,1,3.924.765c.436.153.863.329,1.286.524a5.017,5.017,0,0,0,.433-.824,3.533,3.533,0,0,0,.27-1.153,3.133,3.133,0,0,0-.6-2.038,6.287,6.287,0,0,0-1.706-1.556,7.522,7.522,0,0,0-6.043-.687A6.367,6.367,0,0,0,8.133,2.5a3.477,3.477,0,0,0-1.2,1.872,4.031,4.031,0,0,0,.759,3.09,14,14,0,0,1,1.537-.615ZM24.215,24.932a18.564,18.564,0,0,0,.853-6.427,11,11,0,0,0-1.67-5.278A13.321,13.321,0,0,0,18.272,8.7a.456.456,0,0,1-.241-.059h0a13.491,13.491,0,0,0-1.589-.729,11.261,11.261,0,0,0-4.412-.651A10.757,10.757,0,0,0,9.3,7.851a13.609,13.609,0,0,0-3.6,1.993,12.257,12.257,0,0,0-4.067,5.236,11.477,11.477,0,0,0-.619,4.865,21.236,21.236,0,0,0,.941,4.663,4.865,4.865,0,0,1,1.166-.957.542.542,0,0,1,.088-.042q-.083-.933-.117-1.934c-.241.052-.482.1-.726.147a.485.485,0,0,1-.179-.954,19.513,19.513,0,0,0,6.74-2.377,8.364,8.364,0,0,0,3.725-4.728.487.487,0,0,1,.609-.322.482.482,0,0,1,.335.384h0a6.889,6.889,0,0,0,3.129,4.7A17.429,17.429,0,0,0,23.769,20.9a.487.487,0,1,1-.143.964c-.3-.046-.593-.094-.882-.147-.013.658-.039,1.28-.078,1.875a.506.506,0,0,1,.13.055,4.652,4.652,0,0,1,1.42,1.28Zm-2.442-3.406a16.313,16.313,0,0,1-5.6-2.2,7.976,7.976,0,0,1-3.158-3.875,9.549,9.549,0,0,1-3.582,3.862A18.335,18.335,0,0,1,4.05,21.458a20.916,20.916,0,0,0,1.967,9.071,9.79,9.79,0,0,0,5.363,4.848,6.152,6.152,0,0,0,1.325.2,6.376,6.376,0,0,0,1.315-.094,5.547,5.547,0,0,0,.993-.26,5.7,5.7,0,0,0,.892-.414c.173-.1.339-.2.5-.309l.029-.02-1.185-.814a2.07,2.07,0,0,1-.961-1.195,2.271,2.271,0,0,1,.3-1.586,3.641,3.641,0,0,1,1.524-1.534,4,4,0,0,1,2.152-.475c1.355.088,1.384.228,1.608,1.234.007.033.016.068.059.247l.013.059c.107-.192.205-.387.3-.58a11.052,11.052,0,0,0,.606-1.485,17.621,17.621,0,0,0,.687-3.171,33.4,33.4,0,0,0,.234-3.65ZM3.321,24.681a2.815,2.815,0,0,0-1.224,1.7,2.1,2.1,0,0,0,.085,1.13A2.193,2.193,0,0,0,4.288,28.95a21.448,21.448,0,0,1-.967-4.269Zm19.25-.013c-.023.215-.046.423-.075.628a18.433,18.433,0,0,1-.723,3.347c-.033.1-.068.2-.1.3a2.192,2.192,0,0,0,2.055-1.436,2.07,2.07,0,0,0,.085-1.13,2.811,2.811,0,0,0-1.237-1.713Zm-6.779,8.189,2.185,1.5,1.615-1.169-.615-2.608-.059-.26c-.085-.378-.094-.433-.72-.472a3.033,3.033,0,0,0-1.631.358,2.634,2.634,0,0,0-1.114,1.11,1.438,1.438,0,0,0-.228.918,1.267,1.267,0,0,0,.567.625Zm2.885,2.195.414.534,1.257-.9-.342-.6-1.328.964Zm1.009,1.306,1.986,2.566a.352.352,0,0,0,.274.1.485.485,0,0,0,.244-.081.61.61,0,0,0,.2-.2.569.569,0,0,0,.036-.446l-1.589-2.764-1.146.824Zm1.508-5.5a.487.487,0,0,1,.974-.01,4.009,4.009,0,0,1-.143,1.11,4.557,4.557,0,0,1-.414,1,.486.486,0,1,1-.85-.472,3.545,3.545,0,0,0,.326-.781,3.143,3.143,0,0,0,.107-.847Z" transform="translate(0 0)" fill="#fff" stroke="#fff" stroke-width="0.3"/>
  </g>
</svg>
